name C:\Users\u0101727\Documents\MyRepositories\upper-imu-dc\Results\main_tracking\Case_40\kinematics.mot
datacolumns 10
datarows 33
range 3.50000000 3.82000000
endheader 
time	clav_prot	clav_elev	scapula_abduction	scapula_elevation	scapula_upward_rot	scapula_winging	plane_elv	shoulder_elv	axial_rot	
          3.50000000	        -44.43329656	          9.01691841	          0.88770509	         -1.64239228	         84.23718098	        -11.78431395	         37.87019195	         87.74563853	         -7.34166645	
          3.51000000	        -44.43516793	          9.03815277	          0.87198565	         -1.62935326	         84.22754821	        -11.79264178	         37.92738854	         87.71128755	         -7.29312178	
          3.52000000	        -44.43556759	          9.05865139	          0.85701291	         -1.61700643	         84.21538038	        -11.80026861	         37.97877987	         87.67563317	         -7.26225157	
          3.53000000	        -44.43427812	          9.07731967	          0.84366007	         -1.60603645	         84.20098602	        -11.80672158	         38.02343553	         87.63870929	         -7.25074131	
          3.54000000	        -44.43109265	          9.09307929	          0.83280532	         -1.59711333	         84.18470770	        -11.81153451	         38.06086744	         87.60057327	         -7.25727625	
          3.55000000	        -44.42590173	          9.10492700	          0.82511524	         -1.59086911	         84.16685166	        -11.81433152	         38.09117284	         87.56133225	         -7.27756285	
          3.56000000	        -44.41879682	          9.11201174	          0.82081566	         -1.58786005	         84.14764403	        -11.81492091	         38.11511649	         87.52114707	         -7.30492765	
          3.57000000	        -44.41013878	          9.11373033	          0.81954676	         -1.58850840	         84.12722544	        -11.81336361	         38.13408611	         87.48022169	         -7.33135975	
          3.58000000	        -44.40053845	          9.10982392	          0.82039858	         -1.59303103	         84.10568544	        -11.80997726	         38.14987762	         87.43879341	         -7.34873970	
          3.59000000	        -44.39072724	          9.10043648	          0.82216726	         -1.60138030	         84.08312761	        -11.80525397	         38.16432665	         87.39713505	         -7.34998593	
          3.60000000	        -44.38135049	          9.08609630	          0.82376691	         -1.61322972	         84.05974098	        -11.79970844	         38.17888297	         87.35557139	         -7.32992576	
          3.61000000	        -44.37276206	          9.06761632	          0.82463754	         -1.62801848	         84.03584278	        -11.79371292	         38.19427261	         87.31450374	         -7.28579224	
          3.62000000	        -44.36490298	          9.04595761	          0.82497531	         -1.64503531	         84.01186509	        -11.78738834	         38.21036530	         87.27443030	         -7.21733074	
          3.63000000	        -44.35730944	          9.02211605	          0.82569406	         -1.66350474	         83.98828611	        -11.78059528	         38.22627952	         87.23594500	         -7.12657147	
          3.64000000	        -44.34924339	          8.99706302	          0.82814474	         -1.68265047	         83.96553625	        -11.77302198	         38.24067287	         87.19969764	         -7.01737773	
          3.65000000	        -44.33989918	          8.97173087	          0.83370357	         -1.70173328	         83.94391582	        -11.76433009	         38.25212162	         87.16631149	         -6.89489687	
          3.66000000	        -44.32861860	          8.94701660	          0.84337202	         -1.72007218	         83.92355259	        -11.75430244	         38.25948045	         87.13627192	         -6.76502593	
          3.67000000	        -44.31505108	          8.92378000	          0.85751766	         -1.73705720	         83.90441895	        -11.74294258	         38.26212499	         87.10980268	         -6.63396238	
          3.68000000	        -44.29922667	          8.90282065	          0.87581696	         -1.75216110	         83.88641217	        -11.73050056	         38.26003344	         87.08674225	         -6.50785298	
          3.69000000	        -44.28154598	          8.88482142	          0.89736941	         -1.76496332	         83.86946324	        -11.71743088	         38.25374377	         87.06644834	         -6.39252311	
          3.70000000	        -44.26270682	          8.87025497	          0.92089642	         -1.77519896	         83.85360394	        -11.70430733	         38.24426927	         87.04778458	         -6.29328461	
          3.71000000	        -44.24358596	          8.85927307	          0.94494236	         -1.78282816	         83.83893182	        -11.69172265	         38.23303693	         87.02923583	         -6.21483267	
          3.72000000	        -44.22510474	          8.85163215	          0.96801462	         -1.78809258	         83.82547096	        -11.68020628	         38.22186531	         87.00913708	         -6.16121485	
          3.73000000	        -44.20813022	          8.84673331	          0.98860010	         -1.79150267	         83.81298653	        -11.67020350	         38.21297173	         86.98593068	         -6.13581072	
          3.74000000	        -44.19344786	          8.84382357	          1.00504357	         -1.79371786	         83.80082911	        -11.66213787	         38.20897840	         86.95835778	         -6.14123940	
          3.75000000	        -44.18176776	          8.84231507	          1.01540534	         -1.79533887	         83.78786376	        -11.65651092	         38.21284416	         86.92555090	         -6.17914030	
          3.76000000	        -44.17366262	          8.84209653	          1.01752480	         -1.79668524	         83.77251288	        -11.65393569	         38.22761668	         86.88705584	         -6.24984839	
          3.77000000	        -44.16935328	          8.84369647	          1.00947046	         -1.79764570	         83.75291702	        -11.65501318	         38.25594454	         86.84282795	         -6.35206448	
          3.78000000	        -44.16836335	          8.84821218	          0.99033527	         -1.79766581	         83.72718116	        -11.66004876	         38.29943294	         86.79322437	         -6.48264591	
          3.79000000	        -44.16919691	          8.85700943	          0.96105844	         -1.79589171	         83.69363603	        -11.66872098	         38.35809741	         86.73897620	         -6.63660795	
          3.80000000	        -44.16924013	          8.87128562	          0.92484476	         -1.79143452	         83.65103155	        -11.67987005	         38.43021125	         86.68110931	         -6.80736144	
          3.81000000	        -44.16498690	          8.89163914	          0.88693285	         -1.78367424	         83.59860326	        -11.69151854	         38.51267669	         86.62081352	         -6.98714170	
          3.82000000	        -44.15252653	          8.91778458	          0.85378360	         -1.77250306	         83.53600855	        -11.70112441	         38.60179474	         86.55929434	         -7.16754785	
